<mxfile host="Electron" agent="Mozilla/5.0 (Windows NT 10.0; Win64; x64) AppleWebKit/537.36 (KHTML, like Gecko) draw.io/26.0.9 Chrome/128.0.6613.186 Electron/32.2.5 Safari/537.36" version="26.0.9">
  <diagram name="Page-1" id="0Q7VZ_S7cnzkjP_4s8MY">
    <mxGraphModel dx="2530" dy="1150" grid="1" gridSize="10" guides="1" tooltips="1" connect="1" arrows="1" fold="1" page="1" pageScale="1" pageWidth="850" pageHeight="1100" math="0" shadow="0">
      <root>
        <mxCell id="0" />
        <mxCell id="1" parent="0" />
        <mxCell id="9x2usjZk49Wl1C-McuQ0-1" value="&lt;font style=&quot;font-size: 20px;&quot;&gt;MSP430FR2355&lt;/font&gt;&lt;div&gt;&lt;font style=&quot;font-size: 20px;&quot;&gt;(controller)&lt;/font&gt;&lt;/div&gt;" style="rounded=0;whiteSpace=wrap;html=1;fillColor=#f8cecc;strokeColor=#b85450;" parent="1" vertex="1">
          <mxGeometry x="-60" y="400" width="240" height="450" as="geometry" />
        </mxCell>
        <mxCell id="9x2usjZk49Wl1C-McuQ0-2" value="MSP430FR2310&lt;br&gt;(16-Pin)" style="rounded=0;whiteSpace=wrap;html=1;fillColor=#e1d5e7;strokeColor=#9673a6;" parent="1" vertex="1">
          <mxGeometry x="300" y="440" width="180" height="370" as="geometry" />
        </mxCell>
        <mxCell id="9x2usjZk49Wl1C-McuQ0-3" value="LEDBAR" style="rounded=0;whiteSpace=wrap;html=1;fillColor=#d5e8d4;strokeColor=#82b366;" parent="1" vertex="1">
          <mxGeometry x="-680" y="460" width="200" height="330" as="geometry" />
        </mxCell>
        <mxCell id="9x2usjZk49Wl1C-McuQ0-4" value="LCD" style="rounded=0;whiteSpace=wrap;html=1;fillColor=#dae8fc;strokeColor=#6c8ebf;" parent="1" vertex="1">
          <mxGeometry x="600" y="460" width="200" height="330" as="geometry" />
        </mxCell>
        <mxCell id="qIX9BkgFWLCy8-ITbAEw-1" value="MSP430FR2310&lt;br&gt;(16-Pin)" style="rounded=0;whiteSpace=wrap;html=1;fillColor=#e1d5e7;strokeColor=#9673a6;" vertex="1" parent="1">
          <mxGeometry x="-360" y="440" width="180" height="370" as="geometry" />
        </mxCell>
        <mxCell id="qIX9BkgFWLCy8-ITbAEw-3" value="" style="rounded=0;whiteSpace=wrap;html=1;" vertex="1" parent="1">
          <mxGeometry x="-480" y="750" width="40" height="30" as="geometry" />
        </mxCell>
        <mxCell id="qIX9BkgFWLCy8-ITbAEw-4" value="" style="rounded=0;whiteSpace=wrap;html=1;" vertex="1" parent="1">
          <mxGeometry x="-480" y="670" width="40" height="30" as="geometry" />
        </mxCell>
        <mxCell id="qIX9BkgFWLCy8-ITbAEw-5" value="" style="rounded=0;whiteSpace=wrap;html=1;" vertex="1" parent="1">
          <mxGeometry x="-480" y="710" width="40" height="30" as="geometry" />
        </mxCell>
        <mxCell id="qIX9BkgFWLCy8-ITbAEw-6" value="" style="rounded=0;whiteSpace=wrap;html=1;" vertex="1" parent="1">
          <mxGeometry x="-480" y="630" width="40" height="30" as="geometry" />
        </mxCell>
        <mxCell id="qIX9BkgFWLCy8-ITbAEw-7" value="" style="rounded=0;whiteSpace=wrap;html=1;" vertex="1" parent="1">
          <mxGeometry x="-480" y="590" width="40" height="30" as="geometry" />
        </mxCell>
        <mxCell id="qIX9BkgFWLCy8-ITbAEw-8" value="" style="rounded=0;whiteSpace=wrap;html=1;" vertex="1" parent="1">
          <mxGeometry x="-480" y="550" width="40" height="30" as="geometry" />
        </mxCell>
        <mxCell id="qIX9BkgFWLCy8-ITbAEw-9" value="" style="rounded=0;whiteSpace=wrap;html=1;" vertex="1" parent="1">
          <mxGeometry x="-480" y="510" width="40" height="30" as="geometry" />
        </mxCell>
        <mxCell id="qIX9BkgFWLCy8-ITbAEw-10" value="" style="rounded=0;whiteSpace=wrap;html=1;" vertex="1" parent="1">
          <mxGeometry x="-480" y="470" width="40" height="30" as="geometry" />
        </mxCell>
        <mxCell id="qIX9BkgFWLCy8-ITbAEw-14" value="" style="rounded=0;whiteSpace=wrap;html=1;" vertex="1" parent="1">
          <mxGeometry x="-400" y="750" width="40" height="30" as="geometry" />
        </mxCell>
        <mxCell id="qIX9BkgFWLCy8-ITbAEw-15" value="" style="rounded=0;whiteSpace=wrap;html=1;" vertex="1" parent="1">
          <mxGeometry x="-400" y="670" width="40" height="30" as="geometry" />
        </mxCell>
        <mxCell id="qIX9BkgFWLCy8-ITbAEw-16" value="" style="rounded=0;whiteSpace=wrap;html=1;" vertex="1" parent="1">
          <mxGeometry x="-400" y="710" width="40" height="30" as="geometry" />
        </mxCell>
        <mxCell id="qIX9BkgFWLCy8-ITbAEw-17" value="" style="rounded=0;whiteSpace=wrap;html=1;" vertex="1" parent="1">
          <mxGeometry x="-400" y="630" width="40" height="30" as="geometry" />
        </mxCell>
        <mxCell id="qIX9BkgFWLCy8-ITbAEw-18" value="" style="rounded=0;whiteSpace=wrap;html=1;" vertex="1" parent="1">
          <mxGeometry x="-400" y="590" width="40" height="30" as="geometry" />
        </mxCell>
        <mxCell id="qIX9BkgFWLCy8-ITbAEw-19" value="" style="rounded=0;whiteSpace=wrap;html=1;" vertex="1" parent="1">
          <mxGeometry x="-400" y="550" width="40" height="30" as="geometry" />
        </mxCell>
        <mxCell id="qIX9BkgFWLCy8-ITbAEw-20" value="" style="rounded=0;whiteSpace=wrap;html=1;" vertex="1" parent="1">
          <mxGeometry x="-400" y="510" width="40" height="30" as="geometry" />
        </mxCell>
        <mxCell id="qIX9BkgFWLCy8-ITbAEw-21" value="" style="rounded=0;whiteSpace=wrap;html=1;" vertex="1" parent="1">
          <mxGeometry x="-400" y="470" width="40" height="30" as="geometry" />
        </mxCell>
      </root>
    </mxGraphModel>
  </diagram>
</mxfile>
